<svg width="35" height="41" viewBox="0 0 35 41" fill="none" xmlns="http://www.w3.org/2000/svg">
<path d="M27.7679 6.29464C26.242 4.55273 25.4011 2.3157 25.4018 0H18.5045V27.6786C18.4513 29.1764 17.8189 30.5951 16.7405 31.636C15.6622 32.6769 14.222 33.2587 12.7232 33.2589C9.55357 33.2589 6.91964 30.6696 6.91964 27.4554C6.91964 23.6161 10.625 20.7366 14.442 21.9196V14.8661C6.74107 13.8393 0 19.8214 0 27.4554C0 34.8884 6.16072 40.1786 12.7009 40.1786C19.7098 40.1786 25.4018 34.4866 25.4018 27.4554V13.4152C28.1987 15.4238 31.5566 16.5014 35 16.4955V9.59821C35 9.59821 30.8036 9.79911 27.7679 6.29464Z" fill="white"/>
</svg>
